<mxfile host="app.diagrams.net" modified="2023-03-09T19:02:13.675Z" agent="5.0 (Macintosh; Intel Mac OS X 10_15_7) AppleWebKit/537.36 (KHTML, like Gecko) Chrome/110.0.0.0 Safari/537.36" etag="gAFPpY95VLKlsle4lyHf" version="21.0.2" type="github">
  <diagram name="Page-1" id="icjVqxEl6QE1_D_8Zwpy">
    <mxGraphModel dx="1004" dy="588" grid="1" gridSize="10" guides="1" tooltips="1" connect="1" arrows="1" fold="1" page="1" pageScale="1" pageWidth="850" pageHeight="1100" math="0" shadow="0">
      <root>
        <mxCell id="0" />
        <mxCell id="1" parent="0" />
        <mxCell id="mWjNH0HdIJz2-ww5PxK--1" value="&lt;div style=&quot;text-align: left;&quot;&gt;&lt;span style=&quot;background-color: initial;&quot;&gt;Lack of disorder&amp;nbsp; &amp;nbsp; &amp;nbsp; &amp;nbsp; &amp;nbsp; &lt;/span&gt;&lt;span style=&quot;background-color: initial;&quot;&gt;Peak b&lt;/span&gt;&lt;span style=&quot;background-color: initial;&quot;&gt;rain&amp;nbsp;&lt;/span&gt;&lt;/div&gt;&lt;div style=&quot;text-align: left;&quot;&gt;&lt;span style=&quot;background-color: initial;&quot;&gt;&lt;span style=&quot;white-space: pre;&quot;&gt; &lt;/span&gt;&lt;span style=&quot;white-space: pre;&quot;&gt; &lt;/span&gt;&lt;span style=&quot;white-space: pre;&quot;&gt; &lt;/span&gt;&lt;span style=&quot;white-space: pre;&quot;&gt; &lt;/span&gt;&amp;nbsp; &amp;nbsp; &amp;nbsp; &amp;nbsp; &amp;nbsp; &amp;nbsp; &amp;nbsp; &amp;nbsp; &amp;nbsp; &amp;nbsp; &amp;nbsp; &amp;nbsp; &amp;nbsp; &amp;nbsp; &amp;nbsp; performance&lt;/span&gt;&lt;/div&gt;" style="ellipse;whiteSpace=wrap;html=1;fillColor=#fff2cc;strokeColor=#d6b656;" parent="1" vertex="1">
          <mxGeometry x="270" y="490" width="220" height="130" as="geometry" />
        </mxCell>
        <mxCell id="mWjNH0HdIJz2-ww5PxK--20" value="" style="edgeStyle=orthogonalEdgeStyle;rounded=0;orthogonalLoop=1;jettySize=auto;html=1;" parent="1" source="mWjNH0HdIJz2-ww5PxK--7" target="mWjNH0HdIJz2-ww5PxK--1" edge="1">
          <mxGeometry relative="1" as="geometry" />
        </mxCell>
        <mxCell id="mWjNH0HdIJz2-ww5PxK--7" value="Pharmacological interventions" style="ellipse;whiteSpace=wrap;html=1;aspect=fixed;fillColor=#dae8fc;strokeColor=#6c8ebf;" parent="1" vertex="1">
          <mxGeometry x="250" y="330" width="100" height="100" as="geometry" />
        </mxCell>
        <mxCell id="mWjNH0HdIJz2-ww5PxK--21" value="" style="edgeStyle=orthogonalEdgeStyle;rounded=0;orthogonalLoop=1;jettySize=auto;html=1;" parent="1" source="mWjNH0HdIJz2-ww5PxK--8" target="mWjNH0HdIJz2-ww5PxK--1" edge="1">
          <mxGeometry relative="1" as="geometry" />
        </mxCell>
        <mxCell id="mWjNH0HdIJz2-ww5PxK--8" value="Non-Pharmacological Interventions" style="ellipse;whiteSpace=wrap;html=1;aspect=fixed;fillColor=#d5e8d4;strokeColor=#82b366;" parent="1" vertex="1">
          <mxGeometry x="385" y="330" width="100" height="100" as="geometry" />
        </mxCell>
        <mxCell id="mWjNH0HdIJz2-ww5PxK--11" value="Nutrition, exercise, sleep regulation" style="whiteSpace=wrap;html=1;aspect=fixed;fillColor=#ffe6cc;strokeColor=#d79b00;" parent="1" vertex="1">
          <mxGeometry x="480" y="220" width="70" height="70" as="geometry" />
        </mxCell>
        <mxCell id="mWjNH0HdIJz2-ww5PxK--26" value="" style="edgeStyle=orthogonalEdgeStyle;rounded=0;orthogonalLoop=1;jettySize=auto;html=1;" parent="1" source="mWjNH0HdIJz2-ww5PxK--23" target="mWjNH0HdIJz2-ww5PxK--1" edge="1">
          <mxGeometry relative="1" as="geometry">
            <Array as="points">
              <mxPoint x="380" y="460" />
            </Array>
          </mxGeometry>
        </mxCell>
        <mxCell id="mWjNH0HdIJz2-ww5PxK--23" value="Genetic and environmental factors" style="ellipse;whiteSpace=wrap;html=1;aspect=fixed;fillColor=#e1d5e7;strokeColor=#9673a6;" parent="1" vertex="1">
          <mxGeometry x="100" y="330" width="100" height="100" as="geometry" />
        </mxCell>
        <mxCell id="mWjNH0HdIJz2-ww5PxK--44" value="" style="edgeStyle=orthogonalEdgeStyle;rounded=0;orthogonalLoop=1;jettySize=auto;html=1;entryX=0.5;entryY=0;entryDx=0;entryDy=0;" parent="1" source="mWjNH0HdIJz2-ww5PxK--24" target="mWjNH0HdIJz2-ww5PxK--1" edge="1">
          <mxGeometry relative="1" as="geometry">
            <Array as="points">
              <mxPoint x="380" y="460" />
            </Array>
          </mxGeometry>
        </mxCell>
        <mxCell id="mWjNH0HdIJz2-ww5PxK--24" value="Lifestyle factors" style="ellipse;whiteSpace=wrap;html=1;aspect=fixed;fillColor=#ffe6cc;strokeColor=#d79b00;" parent="1" vertex="1">
          <mxGeometry x="530" y="330" width="100" height="100" as="geometry" />
        </mxCell>
        <mxCell id="mWjNH0HdIJz2-ww5PxK--28" value="Lack of &lt;br&gt;negative habits like smoking and alcohol and drug abuse" style="whiteSpace=wrap;html=1;aspect=fixed;fillColor=#ffe6cc;strokeColor=#d79b00;" parent="1" vertex="1">
          <mxGeometry x="570" y="200" width="90" height="90" as="geometry" />
        </mxCell>
        <mxCell id="mWjNH0HdIJz2-ww5PxK--30" value="Maintaining meaningful social interaction and support" style="whiteSpace=wrap;html=1;aspect=fixed;fillColor=#ffe6cc;strokeColor=#d79b00;" parent="1" vertex="1">
          <mxGeometry x="680" y="260" width="75" height="75" as="geometry" />
        </mxCell>
        <mxCell id="mWjNH0HdIJz2-ww5PxK--32" value="Sense of purpose &lt;br&gt;and eustress" style="whiteSpace=wrap;html=1;aspect=fixed;fillColor=#ffe6cc;strokeColor=#d79b00;" parent="1" vertex="1">
          <mxGeometry x="710" y="350" width="60" height="60" as="geometry" />
        </mxCell>
        <mxCell id="mWjNH0HdIJz2-ww5PxK--34" value="" style="endArrow=none;html=1;rounded=0;entryX=0.5;entryY=0;entryDx=0;entryDy=0;exitX=0.5;exitY=1;exitDx=0;exitDy=0;startArrow=none;" parent="1" source="mWjNH0HdIJz2-ww5PxK--35" target="mWjNH0HdIJz2-ww5PxK--1" edge="1">
          <mxGeometry width="50" height="50" relative="1" as="geometry">
            <mxPoint x="390" y="620" as="sourcePoint" />
            <mxPoint x="440" y="570" as="targetPoint" />
          </mxGeometry>
        </mxCell>
        <mxCell id="mWjNH0HdIJz2-ww5PxK--36" value="" style="endArrow=none;html=1;rounded=0;entryX=0.5;entryY=0;entryDx=0;entryDy=0;exitX=0.5;exitY=1;exitDx=0;exitDy=0;" parent="1" source="mWjNH0HdIJz2-ww5PxK--1" target="mWjNH0HdIJz2-ww5PxK--35" edge="1">
          <mxGeometry width="50" height="50" relative="1" as="geometry">
            <mxPoint x="390" y="360" as="sourcePoint" />
            <mxPoint x="390" y="230" as="targetPoint" />
          </mxGeometry>
        </mxCell>
        <mxCell id="mWjNH0HdIJz2-ww5PxK--53" value="" style="edgeStyle=orthogonalEdgeStyle;rounded=0;orthogonalLoop=1;jettySize=auto;html=1;" parent="1" source="mWjNH0HdIJz2-ww5PxK--35" target="mWjNH0HdIJz2-ww5PxK--51" edge="1">
          <mxGeometry relative="1" as="geometry">
            <Array as="points">
              <mxPoint x="380" y="640" />
              <mxPoint x="455" y="640" />
            </Array>
          </mxGeometry>
        </mxCell>
        <mxCell id="mWjNH0HdIJz2-ww5PxK--54" style="edgeStyle=orthogonalEdgeStyle;rounded=0;orthogonalLoop=1;jettySize=auto;html=1;" parent="1" source="mWjNH0HdIJz2-ww5PxK--35" target="mWjNH0HdIJz2-ww5PxK--50" edge="1">
          <mxGeometry relative="1" as="geometry">
            <Array as="points">
              <mxPoint x="380" y="640" />
              <mxPoint x="300" y="640" />
            </Array>
          </mxGeometry>
        </mxCell>
        <mxCell id="mWjNH0HdIJz2-ww5PxK--55" style="edgeStyle=orthogonalEdgeStyle;rounded=0;orthogonalLoop=1;jettySize=auto;html=1;entryX=0.5;entryY=0;entryDx=0;entryDy=0;exitX=0.5;exitY=1;exitDx=0;exitDy=0;" parent="1" source="mWjNH0HdIJz2-ww5PxK--35" target="mWjNH0HdIJz2-ww5PxK--52" edge="1">
          <mxGeometry relative="1" as="geometry">
            <mxPoint x="380" y="640" as="sourcePoint" />
            <Array as="points">
              <mxPoint x="380" y="640" />
              <mxPoint x="605" y="640" />
            </Array>
          </mxGeometry>
        </mxCell>
        <mxCell id="mWjNH0HdIJz2-ww5PxK--58" style="edgeStyle=orthogonalEdgeStyle;rounded=0;orthogonalLoop=1;jettySize=auto;html=1;entryX=0.5;entryY=0;entryDx=0;entryDy=0;" parent="1" source="mWjNH0HdIJz2-ww5PxK--35" target="mWjNH0HdIJz2-ww5PxK--45" edge="1">
          <mxGeometry relative="1" as="geometry">
            <Array as="points">
              <mxPoint x="380" y="640" />
              <mxPoint x="155" y="640" />
            </Array>
          </mxGeometry>
        </mxCell>
        <mxCell id="mWjNH0HdIJz2-ww5PxK--35" value="Brain Health" style="rounded=0;whiteSpace=wrap;html=1;fillColor=#fff2cc;strokeColor=#d6b656;" parent="1" vertex="1">
          <mxGeometry x="325" y="580" width="110" height="40" as="geometry" />
        </mxCell>
        <mxCell id="mWjNH0HdIJz2-ww5PxK--45" value="Increased &lt;br&gt;and prolonged&lt;br&gt;productivity at work &lt;br&gt;or other &lt;br&gt;pursuits" style="rhombus;whiteSpace=wrap;html=1;fillColor=#f8cecc;strokeColor=#b85450;" parent="1" vertex="1">
          <mxGeometry x="90" y="670" width="130" height="130" as="geometry" />
        </mxCell>
        <mxCell id="mWjNH0HdIJz2-ww5PxK--50" value="Lower &lt;br&gt;healthcare and &lt;br&gt;societal costs related &lt;br&gt;to treatment &lt;br&gt;of disorder" style="rhombus;whiteSpace=wrap;html=1;fillColor=#f8cecc;strokeColor=#b85450;" parent="1" vertex="1">
          <mxGeometry x="235" y="670" width="130" height="130" as="geometry" />
        </mxCell>
        <mxCell id="mWjNH0HdIJz2-ww5PxK--51" value="Higher &lt;br&gt;measured &lt;br&gt;levels of happiness &lt;br&gt;and &lt;br&gt;well-being" style="rhombus;whiteSpace=wrap;html=1;fillColor=#f8cecc;strokeColor=#b85450;" parent="1" vertex="1">
          <mxGeometry x="390" y="670" width="130" height="130" as="geometry" />
        </mxCell>
        <mxCell id="mWjNH0HdIJz2-ww5PxK--52" value="Greater &lt;br&gt;&amp;nbsp;measured levels &lt;br&gt;of resilience in the &lt;br&gt;face of crisis and&lt;br&gt;change" style="rhombus;whiteSpace=wrap;html=1;fillColor=#f8cecc;strokeColor=#b85450;" parent="1" vertex="1">
          <mxGeometry x="540" y="670" width="130" height="130" as="geometry" />
        </mxCell>
        <mxCell id="AJzPNM6qC83uY9v0RdB7-1" value="" style="endArrow=classic;html=1;rounded=0;exitX=0.5;exitY=1;exitDx=0;exitDy=0;entryX=0.734;entryY=0.057;entryDx=0;entryDy=0;entryPerimeter=0;" edge="1" parent="1" source="mWjNH0HdIJz2-ww5PxK--28" target="mWjNH0HdIJz2-ww5PxK--24">
          <mxGeometry width="50" height="50" relative="1" as="geometry">
            <mxPoint x="370" y="550" as="sourcePoint" />
            <mxPoint x="420" y="500" as="targetPoint" />
          </mxGeometry>
        </mxCell>
        <mxCell id="AJzPNM6qC83uY9v0RdB7-2" value="" style="endArrow=classic;html=1;rounded=0;exitX=0;exitY=0.5;exitDx=0;exitDy=0;entryX=0.944;entryY=0.236;entryDx=0;entryDy=0;entryPerimeter=0;" edge="1" parent="1" source="mWjNH0HdIJz2-ww5PxK--30" target="mWjNH0HdIJz2-ww5PxK--24">
          <mxGeometry width="50" height="50" relative="1" as="geometry">
            <mxPoint x="695" y="320" as="sourcePoint" />
            <mxPoint x="625" y="355" as="targetPoint" />
          </mxGeometry>
        </mxCell>
        <mxCell id="AJzPNM6qC83uY9v0RdB7-3" value="" style="endArrow=classic;html=1;rounded=0;exitX=0;exitY=0.5;exitDx=0;exitDy=0;entryX=1;entryY=0.5;entryDx=0;entryDy=0;" edge="1" parent="1" source="mWjNH0HdIJz2-ww5PxK--32" target="mWjNH0HdIJz2-ww5PxK--24">
          <mxGeometry width="50" height="50" relative="1" as="geometry">
            <mxPoint x="705" y="330" as="sourcePoint" />
            <mxPoint x="635" y="365" as="targetPoint" />
          </mxGeometry>
        </mxCell>
        <mxCell id="AJzPNM6qC83uY9v0RdB7-4" value="" style="endArrow=classic;html=1;rounded=0;exitX=0.5;exitY=1;exitDx=0;exitDy=0;entryX=0;entryY=0;entryDx=0;entryDy=0;" edge="1" parent="1" source="mWjNH0HdIJz2-ww5PxK--11" target="mWjNH0HdIJz2-ww5PxK--24">
          <mxGeometry width="50" height="50" relative="1" as="geometry">
            <mxPoint x="695" y="320" as="sourcePoint" />
            <mxPoint x="625" y="355" as="targetPoint" />
          </mxGeometry>
        </mxCell>
      </root>
    </mxGraphModel>
  </diagram>
</mxfile>
